<svg width="40" height="24" viewBox="0 0 40 24" fill="none" xmlns="http://www.w3.org/2000/svg">
<g clip-path="url(#clip0_501_726)">
<path d="M23 20.9999V17.4999C23 16.4999 23.1 16.0999 22.5 15.4999C25.3 15.1999 28 14.0999 28 9.49995C27.9988 8.30491 27.5325 7.15726 26.7 6.29995C27.0905 5.26192 27.0545 4.11158 26.6 3.09995C26.6 3.09995 25.5 2.79995 23.1 4.39995C21.0672 3.87054 18.9328 3.87054 16.9 4.39995C14.5 2.79995 13.4 3.09995 13.4 3.09995C12.9455 4.11158 12.9095 5.26192 13.3 6.29995C12.4675 7.15726 12.0012 8.30491 12 9.49995C12 14.0999 14.7 15.1999 17.5 15.4999C16.9 16.0999 16.9 16.6999 17 17.4999V20.9999M17 18.9999C12.7 20.3999 12.7 16.4999 11 15.9999L17 18.9999Z" stroke="#4B4B4B" stroke-width="1.25" stroke-linecap="round" stroke-linejoin="round"/>
</g>
<defs>
<clipPath id="clip0_501_726">
<rect width="24" height="24" fill="white" transform="translate(8)"/>
</clipPath>
</defs>
</svg>
